<?xml version="1.0" encoding="UTF-8" standalone="no"?>
<svg
   xmlns:dc="http://purl.org/dc/elements/1.1/"
   xmlns:cc="http://creativecommons.org/ns#"
   xmlns:rdf="http://www.w3.org/1999/02/22-rdf-syntax-ns#"
   xmlns:svg="http://www.w3.org/2000/svg"
   xmlns="http://www.w3.org/2000/svg"
   viewBox="0 0 666.66669 496.81332"
   height="496.81332"
   width="666.66669"
   xml:space="preserve"
   id="svg2"
   version="1.1"><metadata
     id="metadata8"><rdf:RDF><cc:Work
         rdf:about=""><dc:format>image/svg+xml</dc:format><dc:type
           rdf:resource="http://purl.org/dc/dcmitype/StillImage" /></cc:Work></rdf:RDF></metadata><defs
     id="defs6" /><g
     transform="matrix(1.3333333,0,0,-1.3333333,0,496.81333)"
     id="g10"><g
       transform="scale(0.1)"
       id="g12"><path
         id="path14"
         style="fill:#e7e8e5;fill-opacity:1;fill-rule:nonzero;stroke:none"
         d="m 0,449.129 h 5000 v 2.5 H 0 Z" /><path
         id="path16"
         style="fill:#e7e8e5;fill-opacity:1;fill-rule:nonzero;stroke:none"
         d="m 4167.79,290.672 h 331.22 v -2.5 h -331.22 v 2.5" /><path
         id="path18"
         style="fill:#e7e8e5;fill-opacity:1;fill-rule:nonzero;stroke:none"
         d="m 3333.81,288.172 h 708.063 v 2.5 H 3333.81 Z" /><path
         id="path20"
         style="fill:#e7e8e5;fill-opacity:1;fill-rule:nonzero;stroke:none"
         d="m 2751.41,381.039 h 191.922 v 2.5 H 2751.41 Z" /><path
         id="path22"
         style="fill:#e7e8e5;fill-opacity:1;fill-rule:nonzero;stroke:none"
         d="m 524.59,366.73 h 342.898 v -2.5 H 524.59 v 2.5" /><path
         id="path24"
         style="fill:#e7e8e5;fill-opacity:1;fill-rule:nonzero;stroke:none"
         d="M 956.523,364.23 H 1580 v 2.5 H 956.523 Z" /><path
         id="path26"
         style="fill:#e7e8e5;fill-opacity:1;fill-rule:nonzero;stroke:none"
         d="m 1883.33,322.012 h 368.141 v 2.5 H 1883.33 Z" /><path
         id="path28"
         style="fill:#e7e8e5;fill-opacity:1;fill-rule:nonzero;stroke:none"
         d="m 439.152,3723.59 c -30.101,0 -54.582,-24.49 -54.582,-54.57 V 954.699 c 0,-30.097 24.481,-54.578 54.582,-54.578 H 2370.14 c 30.08,0 54.57,24.481 54.57,54.578 V 3669.02 c 0,30.08 -24.49,54.57 -54.57,54.57 H 439.152 M 2370.14,897.621 H 439.152 c -31.476,0 -57.082,25.598 -57.082,57.078 V 3669.02 c 0,31.46 25.606,57.07 57.082,57.07 H 2370.14 c 31.46,0 57.07,-25.61 57.07,-57.07 V 954.699 c 0,-31.48 -25.61,-57.078 -57.07,-57.078" /><path
         id="path30"
         style="fill:#e7e8e5;fill-opacity:1;fill-rule:nonzero;stroke:none"
         d="m 2602.12,3723.59 c -30.09,0 -54.57,-24.49 -54.57,-54.57 V 954.699 c 0,-30.097 24.48,-54.578 54.57,-54.578 h 1930.99 c 30.09,0 54.58,24.481 54.58,54.578 V 3669.02 c 0,30.08 -24.49,54.57 -54.58,54.57 H 2602.12 M 4533.11,897.621 H 2602.12 c -31.47,0 -57.07,25.598 -57.07,57.078 V 3669.02 c 0,31.46 25.6,57.07 57.07,57.07 h 1930.99 c 31.47,0 57.08,-25.61 57.08,-57.07 V 954.699 c 0,-31.48 -25.61,-57.078 -57.08,-57.078" /><path
         id="path32"
         style="fill:#f3f2f1;fill-opacity:1;fill-rule:nonzero;stroke:none"
         d="m 620.523,709.891 h 966.938 v 2666.98 H 620.523 Z" /><path
         id="path34"
         style="fill:#e7e8e5;fill-opacity:1;fill-rule:nonzero;stroke:none"
         d="m 1587.46,709.891 h 9.7891 v 2666.98 h -9.7891 z" /><path
         id="path36"
         style="fill:#ffffff;fill-opacity:1;fill-rule:nonzero;stroke:none"
         d="m 713.828,811.629 h 780.32 v 2463.51 h -780.32 z" /><path
         id="path38"
         style="fill:#e2e2e0;fill-opacity:1;fill-rule:nonzero;stroke:none"
         d="M 2001.81,1798.23 H 4282.74 V 3492.94 H 2001.81 Z" /><path
         id="path40"
         style="fill:#f3f2f1;fill-opacity:1;fill-rule:nonzero;stroke:none"
         d="M 1966.51,1798.23 H 4247.44 V 3492.94 H 1966.51 Z" /><path
         id="path42"
         style="fill:#ffffff;fill-opacity:1;fill-rule:nonzero;stroke:none"
         d="m 2029.88,1869.42 h 2154.2 v 1552.34 h -2154.2 z" /><path
         id="path44"
         style="fill:#e2e2e0;fill-opacity:1;fill-rule:nonzero;stroke:none"
         d="m 2029.88,1869.42 h 26.6797 V 3421.76 H 2029.88 Z" /><path
         id="path46"
         style="fill:#f3f2f1;fill-opacity:1;fill-rule:nonzero;stroke:none"
         d="m 1992.72,2201.03 h 2228.51 v 95.55 H 1992.72 v -95.55" /><path
         id="path48"
         style="fill:#f3f2f1;fill-opacity:1;fill-rule:nonzero;stroke:none"
         d="m 1966.51,3023.18 h -70.73 v 544.65 h 215.35 v -74.89 h -109.32 -35.3 v -469.76" /><path
         id="path50"
         style="fill:#ececea;fill-opacity:1;fill-rule:nonzero;stroke:none"
         d="m 2029.88,3023.18 h -63.37 v 469.76 h 144.62 v -71.18 h -81.25 v -398.58" /><path
         id="path52"
         style="fill:#f3f2f1;fill-opacity:1;fill-rule:nonzero;stroke:none"
         d="m 2111.13,3023.18 h -54.57 v 398.58 h -26.68 v -398.58 398.58 h 81.25 v -398.58" /><path
         id="path54"
         style="fill:#e2e2e0;fill-opacity:1;fill-rule:nonzero;stroke:none"
         d="m 2029.88,3023.18 h 26.6797 v 398.582 H 2029.88 Z" /><path
         id="path56"
         style="fill:#fbfbfa;fill-opacity:1;fill-rule:nonzero;stroke:none"
         d="m 2111.13,3492.94 h 106.75 v 74.8906 h -106.75 z" /><path
         id="path58"
         style="fill:#f3f2f1;fill-opacity:1;fill-rule:nonzero;stroke:none"
         d="m 2111.13,3421.76 h 106.75 v 71.1836 h -106.75 z" /><path
         id="path60"
         style="fill:#fbfbfa;fill-opacity:1;fill-rule:nonzero;stroke:none"
         d="m 2111.13,3066.95 h 106.75 v 354.813 h -106.75 z" /><path
         id="path62"
         style="fill:#f3f2f1;fill-opacity:1;fill-rule:nonzero;stroke:none"
         d="m 2433.23,3492.94 h -6.02 v 74.89 h 6.02 v -74.89 m -8.52,0 h -206.83 v 74.89 h 206.83 v -74.89" /><path
         id="path64"
         style="fill:#e5e5e3;fill-opacity:1;fill-rule:nonzero;stroke:none"
         d="m 2424.71,3492.94 h 2.5 v 74.8906 h -2.5 z" /><path
         id="path66"
         style="fill:#ececea;fill-opacity:1;fill-rule:nonzero;stroke:none"
         d="m 2217.88,3421.76 h 215.352 v 71.1836 H 2217.88 Z" /><path
         id="path68"
         style="fill:#f3f2f1;fill-opacity:1;fill-rule:nonzero;stroke:none"
         d="m 2217.88,3023.18 h 215.352 v 398.582 H 2217.88 Z" /><path
         id="path70"
         style="fill:#fbfbfa;fill-opacity:1;fill-rule:nonzero;stroke:none"
         d="m 2433.23,3492.94 h 106.75 v 74.8906 h -106.75 z" /><path
         id="path72"
         style="fill:#f3f2f1;fill-opacity:1;fill-rule:nonzero;stroke:none"
         d="m 2433.23,3421.76 h 106.75 v 71.1836 h -106.75 z" /><path
         id="path74"
         style="fill:#fbfbfa;fill-opacity:1;fill-rule:nonzero;stroke:none"
         d="m 2433.23,3066.95 h 106.75 v 354.813 h -106.75 z" /><path
         id="path76"
         style="fill:#f3f2f1;fill-opacity:1;fill-rule:nonzero;stroke:none"
         d="m 2755.33,3492.94 h -207.78 v 74.89 h 207.78 v -74.89 m -210.28,0 h -5.07 v 74.89 h 5.07 v -74.89" /><path
         id="path78"
         style="fill:#e5e5e3;fill-opacity:1;fill-rule:nonzero;stroke:none"
         d="m 2545.05,3492.94 h 2.5 v 74.8906 h -2.5 z" /><path
         id="path80"
         style="fill:#ececea;fill-opacity:1;fill-rule:nonzero;stroke:none"
         d="m 2539.98,3421.76 h 215.348 v 71.1836 H 2539.98 Z" /><path
         id="path82"
         style="fill:#f3f2f1;fill-opacity:1;fill-rule:nonzero;stroke:none"
         d="m 2539.98,3023.18 h 215.348 v 398.582 H 2539.98 Z" /><path
         id="path84"
         style="fill:#fbfbfa;fill-opacity:1;fill-rule:nonzero;stroke:none"
         d="m 2755.33,3492.94 h 106.754 v 74.8906 H 2755.33 Z" /><path
         id="path86"
         style="fill:#f3f2f1;fill-opacity:1;fill-rule:nonzero;stroke:none"
         d="m 2755.33,3421.76 h 106.754 v 71.1836 H 2755.33 Z" /><path
         id="path88"
         style="fill:#fbfbfa;fill-opacity:1;fill-rule:nonzero;stroke:none"
         d="m 2755.33,3066.95 h 106.754 v 354.813 H 2755.33 Z" /><path
         id="path90"
         style="fill:#f3f2f1;fill-opacity:1;fill-rule:nonzero;stroke:none"
         d="m 2862.08,3492.94 h 215.348 v 74.8906 H 2862.08 Z" /><path
         id="path92"
         style="fill:#ececea;fill-opacity:1;fill-rule:nonzero;stroke:none"
         d="m 2862.08,3421.76 h 215.348 v 71.1836 H 2862.08 Z" /><path
         id="path94"
         style="fill:#f3f2f1;fill-opacity:1;fill-rule:nonzero;stroke:none"
         d="m 2862.08,3023.18 h 215.348 v 398.582 H 2862.08 Z" /><path
         id="path96"
         style="fill:#fbfbfa;fill-opacity:1;fill-rule:nonzero;stroke:none"
         d="m 3077.43,3492.94 h 106.75 v 74.8906 h -106.75 z" /><path
         id="path98"
         style="fill:#f3f2f1;fill-opacity:1;fill-rule:nonzero;stroke:none"
         d="m 3077.43,3421.76 h 106.75 v 71.1836 h -106.75 z" /><path
         id="path100"
         style="fill:#fbfbfa;fill-opacity:1;fill-rule:nonzero;stroke:none"
         d="m 3077.43,3066.95 h 106.75 v 354.813 h -106.75 z" /><path
         id="path102"
         style="fill:#f3f2f1;fill-opacity:1;fill-rule:nonzero;stroke:none"
         d="m 3184.18,3492.94 h 215.34 v 74.8906 h -215.34 z" /><path
         id="path104"
         style="fill:#ececea;fill-opacity:1;fill-rule:nonzero;stroke:none"
         d="m 3184.18,3421.76 h 215.34 v 71.1836 h -215.34 z" /><path
         id="path106"
         style="fill:#f3f2f1;fill-opacity:1;fill-rule:nonzero;stroke:none"
         d="m 3184.18,3023.18 h 215.34 v 398.582 h -215.34 z" /><path
         id="path108"
         style="fill:#fbfbfa;fill-opacity:1;fill-rule:nonzero;stroke:none"
         d="m 3399.52,3492.94 h 106.762 v 74.8906 H 3399.52 Z" /><path
         id="path110"
         style="fill:#f3f2f1;fill-opacity:1;fill-rule:nonzero;stroke:none"
         d="m 3399.52,3421.76 h 106.762 v 71.1836 H 3399.52 Z" /><path
         id="path112"
         style="fill:#fbfbfa;fill-opacity:1;fill-rule:nonzero;stroke:none"
         d="m 3399.52,3066.95 h 106.762 v 354.813 H 3399.52 Z" /><path
         id="path114"
         style="fill:#f3f2f1;fill-opacity:1;fill-rule:nonzero;stroke:none"
         d="m 3506.28,3492.94 h 215.34 v 74.8906 h -215.34 z" /><path
         id="path116"
         style="fill:#ececea;fill-opacity:1;fill-rule:nonzero;stroke:none"
         d="m 3506.28,3421.76 h 215.34 v 71.1836 h -215.34 z" /><path
         id="path118"
         style="fill:#f3f2f1;fill-opacity:1;fill-rule:nonzero;stroke:none"
         d="m 3506.28,3023.18 h 215.34 v 398.582 h -215.34 z" /><path
         id="path120"
         style="fill:#fbfbfa;fill-opacity:1;fill-rule:nonzero;stroke:none"
         d="m 3721.62,3492.94 h 106.75 v 74.8906 h -106.75 z" /><path
         id="path122"
         style="fill:#f3f2f1;fill-opacity:1;fill-rule:nonzero;stroke:none"
         d="m 3721.62,3421.76 h 106.75 v 71.1836 h -106.75 z" /><path
         id="path124"
         style="fill:#fbfbfa;fill-opacity:1;fill-rule:nonzero;stroke:none"
         d="m 3721.62,3066.95 h 106.75 v 354.813 h -106.75 z" /><path
         id="path126"
         style="fill:#f3f2f1;fill-opacity:1;fill-rule:nonzero;stroke:none"
         d="m 3828.37,3492.94 h 215.348 v 74.8906 H 3828.37 Z" /><path
         id="path128"
         style="fill:#ececea;fill-opacity:1;fill-rule:nonzero;stroke:none"
         d="m 3828.37,3421.76 h 215.348 v 71.1836 H 3828.37 Z" /><path
         id="path130"
         style="fill:#f3f2f1;fill-opacity:1;fill-rule:nonzero;stroke:none"
         d="m 3828.37,3023.18 h 215.348 v 398.582 H 3828.37 Z" /><path
         id="path132"
         style="fill:#fbfbfa;fill-opacity:1;fill-rule:nonzero;stroke:none"
         d="m 4043.72,3492.94 h 106.75 v 74.8906 h -106.75 z" /><path
         id="path134"
         style="fill:#f3f2f1;fill-opacity:1;fill-rule:nonzero;stroke:none"
         d="m 4043.72,3421.76 h 106.75 v 71.1836 h -106.75 z" /><path
         id="path136"
         style="fill:#fbfbfa;fill-opacity:1;fill-rule:nonzero;stroke:none"
         d="m 4043.72,3066.95 h 106.75 v 354.813 h -106.75 z" /><path
         id="path138"
         style="fill:#f3f2f1;fill-opacity:1;fill-rule:nonzero;stroke:none"
         d="m 4365.82,3023.18 h -83.08 v 469.76 h -132.27 v 74.89 h 215.35 v -544.65" /><path
         id="path140"
         style="fill:#e2e2e0;fill-opacity:1;fill-rule:nonzero;stroke:none"
         d="m 4282.74,3023.18 h -35.3 v 469.76 h -96.97 132.27 v -469.76" /><path
         id="path142"
         style="fill:#ececea;fill-opacity:1;fill-rule:nonzero;stroke:none"
         d="m 4247.44,3023.18 h -63.36 v 398.58 h -33.61 v 71.18 h 96.97 v -469.76" /><path
         id="path144"
         style="fill:#f3f2f1;fill-opacity:1;fill-rule:nonzero;stroke:none"
         d="m 4150.47,3023.18 h 33.6133 v 398.582 H 4150.47 Z" /><path
         id="path146"
         style="fill:#e2e2e0;fill-opacity:1;fill-rule:nonzero;stroke:none"
         d="m 2037.18,451.629 h 266.879 v 993.992 H 2037.18 Z" /><path
         id="path148"
         style="fill:#ededeb;fill-opacity:1;fill-rule:nonzero;stroke:none"
         d="m 2081.6,451.629 h -44.42 v 89.453 h 90.99 l -46.57,-89.453" /><path
         id="path150"
         style="fill:#e2e2e0;fill-opacity:1;fill-rule:nonzero;stroke:none"
         d="m 3957.53,451.629 h 266.891 v 993.992 H 3957.53 Z" /><path
         id="path152"
         style="fill:#ededeb;fill-opacity:1;fill-rule:nonzero;stroke:none"
         d="M 2037.18,485.98 H 3996.3 v 959.641 H 2037.18 Z" /><path
         id="path154"
         style="fill:#e2e2e0;fill-opacity:1;fill-rule:nonzero;stroke:none"
         d="m 2071.64,1139.91 h 1890.21 v 263.18 H 2071.64 Z" /><path
         id="path156"
         style="fill:#ededeb;fill-opacity:1;fill-rule:nonzero;stroke:none"
         d="m 2549.78,1321.3 h 933.92 c 43.33,0 84.76,32.47 114.57,89.79 H 2435.21 c 29.8,-57.32 71.24,-89.79 114.57,-89.79" /><path
         id="path158"
         style="fill:#ededeb;fill-opacity:1;fill-rule:nonzero;stroke:none"
         d="m 3951.88,451.629 h 44.42 v 89.453 h -90.98 l 46.56,-89.453" /><path
         id="path160"
         style="fill:#e2e2e0;fill-opacity:1;fill-rule:nonzero;stroke:none"
         d="m 2071.64,834.211 h 1890.21 v 263.168 H 2071.64 Z" /><path
         id="path162"
         style="fill:#ededeb;fill-opacity:1;fill-rule:nonzero;stroke:none"
         d="m 2549.78,1015.6 h 933.92 c 43.33,0 84.76,32.47 114.57,89.78 H 2435.21 c 29.8,-57.31 71.24,-89.78 114.57,-89.78" /><path
         id="path164"
         style="fill:#e2e2e0;fill-opacity:1;fill-rule:nonzero;stroke:none"
         d="M 2071.64,528.512 H 3961.85 V 791.68 H 2071.64 Z" /><path
         id="path166"
         style="fill:#ededeb;fill-opacity:1;fill-rule:nonzero;stroke:none"
         d="m 2549.78,709.891 h 933.92 c 43.33,0 84.76,32.468 114.57,89.789 H 2435.21 c 29.8,-57.321 71.24,-89.789 114.57,-89.789" /><path
         id="path168"
         style="fill:#f3f2f1;fill-opacity:1;fill-rule:nonzero;stroke:none"
         d="M 4438.89,113.23 C 4438.89,50.6914 3570.83,0 2500,0 1429.18,0 561.109,50.6914 561.109,113.23 c 0,62.54 868.071,113.239 1938.891,113.239 1070.83,0 1938.89,-50.699 1938.89,-113.239" /><path
         id="path170"
         style="fill:#406fbf;fill-opacity:1;fill-rule:nonzero;stroke:none"
         d="m 3698.81,170.27 h -10.71 c -4.19,0 -7.77,3.679 -8.49,8.71 l -65.85,458.282 h 50 l 43.61,-455.25 c 0.6,-6.25 -3.41,-11.742 -8.56,-11.742" /><path
         id="path172"
         style="fill:#2d5bb2;fill-opacity:1;fill-rule:nonzero;stroke:none"
         d="m 3698.81,170.27 h -10.71 c -4.19,0 -7.77,3.679 -8.49,8.71 l -65.85,458.282 50,-0.012 43.61,-455.238 c 0.04,-0.41 0.06,-0.821 0.06,-1.231 0,-5.722 -3.81,-10.511 -8.62,-10.511" /><path
         id="path174"
         style="fill:#406fbf;fill-opacity:1;fill-rule:nonzero;stroke:none"
         d="m 3836,170.27 h -10.72 c -4.18,0 -7.76,3.679 -8.48,8.71 l -65.85,458.282 h 50 l 43.61,-455.25 c 0.6,-6.25 -3.4,-11.742 -8.56,-11.742" /><path
         id="path176"
         style="fill:#2d5bb2;fill-opacity:1;fill-rule:nonzero;stroke:none"
         d="m 3836,170.27 h -10.72 c -4.18,0 -7.76,3.679 -8.48,8.71 l -65.85,458.282 h 50 l 43.61,-455.25 c 0.04,-0.41 0.06,-0.821 0.06,-1.231 0,-5.722 -3.81,-10.511 -8.62,-10.511" /><path
         id="path178"
         style="fill:#406fbf;fill-opacity:1;fill-rule:nonzero;stroke:none"
         d="m 3071.58,170.27 h 10.72 c 4.18,0 7.76,3.679 8.49,8.71 l 65.85,458.282 h -50 l -43.61,-455.25 c -0.6,-6.25 3.4,-11.742 8.55,-11.742" /><path
         id="path180"
         style="fill:#2d5bb2;fill-opacity:1;fill-rule:nonzero;stroke:none"
         d="m 3082.3,170.27 h -10.72 c -4.81,0 -8.62,4.789 -8.61,10.511 0,0.41 0.02,0.821 0.06,1.231 l 26.14,272.879 c 10.28,-31.262 20.05,-60.321 28.87,-86.231 l -27.25,-189.68 c -0.73,-5.031 -4.31,-8.71 -8.49,-8.71" /><path
         id="path182"
         style="fill:#406fbf;fill-opacity:1;fill-rule:nonzero;stroke:none"
         d="m 2934.39,170.27 h 10.72 c 4.18,0 7.76,3.679 8.48,8.71 l 65.85,458.282 h -50 l -43.61,-455.25 c -0.59,-6.25 3.41,-11.742 8.56,-11.742" /><path
         id="path184"
         style="fill:#949696;fill-opacity:1;fill-rule:nonzero;stroke:none"
         d="m 3003.82,528.512 v 0 l 15.62,108.75 v -0.012 l -15.62,-108.738" /><path
         id="path186"
         style="fill:#2d5bb2;fill-opacity:1;fill-rule:nonzero;stroke:none"
         d="m 2945.11,170.27 h -10.72 c -4.81,0 -8.62,4.789 -8.61,10.511 0,0.41 0.01,0.821 0.05,1.231 l 43.61,455.25 50,-0.012 -15.62,-108.738 -6.11,-42.532 -4.94,-34.351 -0.36,-2.5 -38.82,-270.149 c -0.72,-5.031 -4.3,-8.71 -8.48,-8.71" /><path
         id="path188"
         style="fill:#406fbf;fill-opacity:1;fill-rule:nonzero;stroke:none"
         d="m 2756.6,1180.49 h 336.8 c 59.76,207.52 274.77,371.23 494.96,371.23 h 0.03 109.37 c 230.48,0 379.23,-179.34 332.23,-400.57 -8.63,-40.6 -23.31,-79.78 -42.86,-116.73 l -53.12,-321.94 c -6.85,-41.539 -40,-75.218 -74.04,-75.218 L 2846.23,637.25 c -34.05,0 -67.2,33.691 -74.05,75.23 l -64.8,392.78 c -6.86,41.55 15.18,75.23 49.22,75.23" /><path
         id="path190"
         style="fill:#85a4dc;fill-opacity:1;fill-rule:nonzero;stroke:none"
         d="m 3613.76,637.262 v 0 l 50,-0.012 v 0.012 l -50,-0.012" /><path
         id="path192"
         style="fill:#85a4dc;fill-opacity:1;fill-rule:nonzero;stroke:none"
         d="m 3750.95,637.262 v 0 h 50 v 0 h -50" /><path
         id="path194"
         style="fill:#85a4dc;fill-opacity:1;fill-rule:nonzero;stroke:none"
         d="m 2969.44,637.262 v 0 l 50,-0.012 v 0.012 l -50,-0.012" /><path
         id="path196"
         style="fill:#90b4e3;fill-opacity:1;fill-rule:nonzero;stroke:none"
         d="m 2861.26,637.25 c 30.09,127.762 55.43,260.641 57.63,352.742 7.47,1.86 15.54,3.539 24.12,5.059 15.3,-99 50.69,-231.629 88.61,-357.801 h -12.18 -50 -108.18 m 337.91,0 c -20.37,136.84 -41.02,279.859 -53.03,374.92 14.51,0.82 29.11,1.68 43.7,2.62 33.03,-0.66 71.41,-1.66 111.62,-1.66 4.53,0 9.08,0.01 13.65,0.04 l 2.92,-17.729 23.86,-358.191 h -142.72 m 188.08,0 -1.25,28.211 c 14.13,-17.199 33.3,-28.199 52.76,-28.199 h 73.17 v -0.012 h -124.68 m 170.04,0 v 0.012 h 246.74 l 64.28,543.228 h -207.19 c 11.47,72.68 -0.43,130.84 -0.43,130.84 v 0 c -0.95,81.97 3.66,161.93 11.55,240.39 h 25.52 c 201.67,0 340.76,-137.3 340.9,-319.84 0.02,-26.07 -2.8,-53.07 -8.67,-80.73 -8.63,-40.6 -23.31,-79.78 -42.86,-116.73 l -25.28,-153.24 -7.75,-46.969 -20.09,-121.731 c -6.85,-41.539 -40,-75.218 -74.04,-75.218 h -59.02 -50 l -87.19,-0.012 h -50 -56.47 m -837.82,394.74 -12.09,73.27 c -0.85,5.12 -1.25,10.11 -1.25,14.93 0,34.4 20.62,60.3 50.47,60.3 h 5.5 c -23.82,-24.01 -38.55,-52.4 -39.87,-86.01 -0.78,-20.03 -1.71,-40.92 -2.76,-62.49 m 430.79,272.42 c 18.56,28.83 40.17,55.95 64.24,80.92 h 40.74 c 2.43,-23.92 5.25,-48.59 8.48,-74 -1.46,-0.02 -48.1,-0.68 -113.46,-6.92 m 102.51,106.39 h -12.04 c 3.68,3.34 7.38,6.62 11.15,9.87 0.29,-3.27 0.59,-6.57 0.89,-9.87" /><path
         id="path198"
         style="fill:#17282f;fill-opacity:1;fill-rule:nonzero;stroke:none"
         d="m 2672.28,288.852 83.42,-38.282 c 3.04,-1.398 4.36,-4.55 3.18,-7.601 l -26.25,-67.86 c -2.72,-7.027 -12.12,-10.57 -19.05,-7.238 -28.81,13.828 -41.91,21.91 -78.59,38.738 -22.57,10.36 -84.36,44.981 -112.2,65.012 -27.22,19.578 -7.24,46.969 6.36,40.988 60.93,-26.89 99.73,-29.3 128.25,-22.449 5.14,1.231 10.44,0.731 14.88,-1.308" /><path
         id="path200"
         style="fill:#406fbf;fill-opacity:1;fill-rule:nonzero;stroke:none"
         d="m 3263.76,1311.33 c 0,0 -533.29,-6.62 -541.53,-216.85 -11.84,-302.16 -56.46,-803.839 -56.46,-803.839 l 89.93,-40.071 c 0,0 157.57,503.442 163.19,739.422 149.62,37.278 535.67,-0.301 581.03,122.678 37.11,100.6 17.04,198.66 17.04,198.66 h -253.2" /><path
         id="path202"
         style="fill:#3563b7;fill-opacity:1;fill-rule:nonzero;stroke:none"
         d="m 2755.7,250.57 -89.93,40.071 c 0,0 44.62,501.679 56.46,803.839 8.2,209.24 536.53,216.78 541.49,216.85 0.16,-1.25 0.32,-2.5 0.48,-3.75 l 33.02,0.31 0.8,-12.01 c -141.94,-25.89 -370.57,-90.24 -362.35,-235.44 1.11,-19.44 3.63,-41.44 7.34,-65.389 -8.58,-1.52 -16.65,-3.199 -24.12,-5.059 -2.2,-92.101 -27.54,-224.98 -57.63,-352.742 -8.73,-37.059 -17.84,-73.66 -26.92,-108.738 -3.74,-14.473 -7.48,-28.672 -11.17,-42.532 -3.12,-11.71 -6.21,-23.179 -9.26,-34.351 -0.22,-0.828 -0.45,-1.668 -0.68,-2.5 -6.35,-23.289 -12.5,-45.309 -18.25,-65.59 -0.24,-0.84 -0.47,-1.668 -0.71,-2.5 C 2771.98,302.59 2755.7,250.57 2755.7,250.57 v 0 m 390.44,761.6 c -0.13,1.07 -0.27,2.12 -0.4,3.18 13.16,0 28,-0.24 44.1,-0.56 -14.59,-0.94 -29.19,-1.8 -43.7,-2.62 m 211.44,293.27 -0.13,3.02 25.34,0.24 c -7.12,-0.85 -15.6,-1.92 -25.21,-3.26" /><path
         id="path204"
         style="fill:#17282f;fill-opacity:1;fill-rule:nonzero;stroke:none"
         d="m 3377.26,1864.4 c -4.64,-19.41 -9.32,-36.92 -14.69,-55.07 -5.26,-17.98 -10.76,-35.87 -16.53,-53.71 -11.71,-35.62 -24.6,-71 -39.49,-106.02 -14.77,-35.06 -31.28,-69.83 -51.4,-104.12 -10.16,-17.13 -21,-34.29 -33.87,-51.04 -12.86,-16.74 -27.42,-33.43 -46.46,-49.07 l -1.48,-1.22 c -1.04,-0.85 -2.15,-1.66 -3.25,-2.39 -12.71,-8.37 -24.55,-10.94 -33.55,-12.04 -9.17,-1.02 -16.6,-0.6 -22.77,0.16 -12.65,1.56 -21.93,4.41 -30.63,7.43 -17.13,6.09 -31.18,13.1 -44.75,20.35 -26.93,14.49 -50.82,30.71 -74.27,47.18 -23.25,16.71 -45.63,34.02 -67.38,52 -21.6,18.29 -42.78,36.34 -63.4,56.23 -12.14,11.71 -12.5,31.03 -0.79,43.17 9.81,10.18 24.97,12.07 36.77,5.54 l 0.49,-0.29 c 23.6,-13.07 47.42,-26.95 71.29,-39.84 23.78,-13.16 47.5,-26.17 71.23,-38.34 23.56,-12.32 47.48,-23.77 70.28,-33.17 11.3,-4.63 22.63,-8.61 31.86,-10.68 4.48,-1 8.64,-1.52 9.73,-1.29 0.68,0 0.19,0.41 -2.14,0.24 -2.2,-0.23 -7.21,-0.86 -14.19,-5.32 l -4.73,-3.61 c 8.51,8.03 17.55,19.25 25.9,31.89 8.34,12.68 16.52,26.47 24.09,40.97 15.09,29.16 28.58,60.6 41.05,92.75 12.31,32.24 23.84,65.23 34.51,98.61 10.86,33.05 20.74,67.75 29.76,100.12 l 0.34,1.22 c 9.07,32.56 42.81,51.59 75.37,42.53 31.79,-8.86 50.66,-41.35 43.1,-73.17" /><path
         id="path206"
         style="fill:#17282f;fill-opacity:1;fill-rule:nonzero;stroke:none"
         d="m 3161.09,245.441 h 100.05 c 3.64,0 6.38,-2.519 6.6,-6.07 l 4.85,-79.16 c 0.51,-8.223 -7.2,-15.992 -15.58,-15.84 -34.84,0.59 -51.48,2.641 -95.48,2.641 -27.07,0 -81.66,-2.813 -119.04,-2.813 -36.56,0 -36.32,36.961 -20.47,40.313 71.03,15.008 98.58,35.718 123.73,55.457 4.53,3.562 10.01,5.472 15.34,5.472" /><path
         id="path208"
         style="fill:#406fbf;fill-opacity:1;fill-rule:nonzero;stroke:none"
         d="m 3407.5,1311.33 c 0,0 -483.73,-40.85 -471.83,-250.89 13.04,-230.018 225.42,-814.999 225.42,-814.999 h 97.82 c 0,0 -83.73,535.707 -113.17,769.909 136.34,0 452.55,-25.659 497.91,97.32 37.11,100.6 17.04,198.66 17.04,198.66 H 3407.5" /><path
         id="path210"
         style="fill:#406fbf;fill-opacity:1;fill-rule:nonzero;stroke:none"
         d="m 2876.78,1651.61 c 0,0 -13.91,22.57 -27.2,33.38 -19.79,-18.54 -30.91,-72.64 -30.91,-72.64 l 27.36,-2.47 c 0,0 31.37,10.21 30.75,41.73" /><path
         id="path212"
         style="fill:#f9a8b3;fill-opacity:1;fill-rule:nonzero;stroke:none"
         d="m 2776.39,1700.22 -31.1,13.51 c -8.36,3.62 -18.1,0.51 -22.81,-7.28 l -14.73,-24.41 c -4.25,-7.04 -3.25,-16.04 2.44,-21.98 l 42.7,-44.55 71.22,2.88 c 8.19,0.33 15.56,5.05 19.29,12.34 l 8.23,16.07 c 5.15,10.06 2.33,22.66 -7.09,28.89 -23.1,15.28 -68.15,24.53 -68.15,24.53" /><path
         id="path214"
         style="fill:#17282f;fill-opacity:1;fill-rule:nonzero;stroke:none"
         d="m 3259.24,1884.95 c -14.28,-89.74 -32.72,-284.33 4.96,-577.37 l 396.49,3.75 c -2.37,203.05 29.46,393.72 60.52,579.96 5.16,30.95 -16.05,59.65 -47.1,64.12 -95.24,13.72 -249.01,13.2 -342.3,0.28 -37.12,-5.15 -66.68,-33.73 -72.57,-70.74" /><path
         id="path216"
         style="fill:#17282f;fill-opacity:1;fill-rule:nonzero;stroke:none"
         d="m 3724.83,1916.61 c 11.63,-28.87 21,-56.62 30.59,-85.21 9.49,-28.43 17.83,-57.28 25.7,-86.42 7.57,-29.23 14.82,-58.72 20.35,-89.02 5.56,-30.3 10.46,-61.09 12.16,-93.75 0.53,-8.1 0.68,-16.49 0.77,-24.88 l -0.15,-12.83 c -0.25,-9.03 -1.55,-22.76 -9.94,-37.44 -3.96,-7.11 -10.18,-14.4 -16.63,-19.42 -3.39,-2.79 -6.64,-4.86 -9.92,-6.65 -3.48,-1.99 -6.55,-3.3 -9.56,-4.42 -12.23,-4.46 -21.69,-5.06 -29.37,-5.1 -15.06,0.28 -25.38,2.89 -35.02,5.47 -18.75,5.45 -33.8,12.11 -48.45,19.11 -14.49,7.13 -28.1,14.68 -41.4,22.42 -52.89,31.36 -100.47,66.29 -146.65,104.98 -12.92,10.82 -14.61,30.07 -3.79,42.99 9.12,10.88 24.23,13.8 36.48,7.96 l 0.71,-0.35 c 51.71,-24.64 104.25,-49.87 155.49,-71.1 12.78,-5.27 25.55,-10.21 37.95,-14.33 12.24,-4.22 24.58,-7.88 34.17,-9.34 4.54,-0.73 8.69,-0.65 8.22,-0.21 -0.4,0.12 -2.52,0.51 -7.95,-1.34 -1.29,-0.49 -2.68,-1.11 -4.62,-2.09 -1.68,-0.93 -3.37,-2.06 -5.42,-3.58 -3.58,-2.81 -7.38,-7.23 -9.66,-11.13 -4.79,-8.29 -5.01,-14.59 -5.16,-16.37 l -0.58,9.04 c -0.55,6.17 -1.08,12.35 -1.99,18.75 -6.84,51.29 -21.3,105.89 -37.33,159.58 -16.07,53.65 -34.45,108.49 -53.18,160.58 l -0.18,0.52 c -11.44,31.8 5.08,66.86 36.88,78.31 31.04,11.15 65.22,-4.42 77.48,-34.73" /><path
         id="path218"
         style="fill:#f9a8b3;fill-opacity:1;fill-rule:nonzero;stroke:none"
         d="m 3566.32,2156.48 -47.97,-39.78 -65.3,-54.24 c 1.91,-8.83 3.4,-17.76 4.15,-26.37 3.12,-31.53 -3.79,-60.54 -42.11,-75.23 -14.48,-5.54 -27.08,-16.12 -31.64,-30.94 -5.16,-16.76 0.94,-35.38 53.56,-35.36 77.26,0.02 117.61,34.37 132.81,51.29 4.28,4.76 4.33,11.78 0.65,17.01 -30.61,43.42 -16.63,139.42 -4.15,193.62" /><path
         id="path220"
         style="fill:#406fbf;fill-opacity:1;fill-rule:nonzero;stroke:none"
         d="m 3435.11,1911.56 c 0,0 5.14,-5.56 6.69,-13.6 4.02,6.8 14.49,13.6 14.49,13.6 0,0 22.94,-10.2 27.72,-32.46 -14.7,0.93 -41.59,15.46 -41.59,15.46 0,0 -13.91,-8.04 -27.82,-8.65 0.61,17.3 20.51,25.65 20.51,25.65" /><path
         id="path222"
         style="fill:#406fbf;fill-opacity:1;fill-rule:nonzero;stroke:none"
         d="m 3456.29,1911.56 c 22.25,-25.05 26.47,-58.31 26.47,-58.31 0,0 128.02,31.99 122.01,115.43 -10.77,6.81 -35.49,10.9 -35.49,10.9 0,0 -27.53,-49.99 -112.99,-68.02" /><path
         id="path224"
         style="fill:#406fbf;fill-opacity:1;fill-rule:nonzero;stroke:none"
         d="m 3435.11,1911.56 c -22.24,-25.05 -28.18,-58.31 -28.18,-58.31 0,0 -65.66,59.77 -1.7,114.75 11.25,4.63 33.84,7.1 33.84,7.1 0,0 -42.49,-34.48 -3.96,-63.54" /><path
         id="path226"
         style="fill:#c3c5c2;fill-opacity:1;fill-rule:nonzero;stroke:none"
         d="m 3453.05,2062.46 c 0,0.01 0,0.01 0,0.01 l 65.3,54.24 0.01,-0.01 h -0.01 l -65.3,-54.24" /><path
         id="path228"
         style="fill:#d8898c;fill-opacity:1;fill-rule:nonzero;stroke:none"
         d="m 3457.2,2036.09 v 0 0 c -0.75,8.61 -2.24,17.55 -4.15,26.37 l 65.3,54.24 c 0.64,-6.49 0.42,-15.52 -0.85,-24.88 -3.4,-24.89 -35.95,-50.83 -60.3,-55.73" /><path
         id="path230"
         style="fill:#17282f;fill-opacity:1;fill-rule:nonzero;stroke:none"
         d="m 3382.95,2328.75 c -60.22,-42.7 -26.52,-142.88 24.85,-104.55 51.37,38.33 24.24,139.35 -24.85,104.55" /><path
         id="path232"
         style="fill:#f9a8b3;fill-opacity:1;fill-rule:nonzero;stroke:none"
         d="m 3586.09,2239.55 c -16.67,-76.68 -22.53,-122.26 -67.81,-157.25 -68.12,-52.63 -158.41,-5.87 -165.02,73.42 -5.96,71.38 22.31,184.78 102.97,206.5 79.47,21.38 146.54,-46 129.86,-122.67" /><path
         id="path234"
         style="fill:#17282f;fill-opacity:1;fill-rule:nonzero;stroke:none"
         d="m 3550.6,2296.38 c -42.51,11.75 -152.11,-16.15 -191.02,25.34 -41.73,44.51 19.17,66.15 37.09,50.69 -22.72,25.97 -14.23,53.78 17.93,51.31 23.45,-1.8 30.93,-27.81 30.93,-27.81 0,0 -3.92,45.47 36.42,42.34 36.64,-2.84 36.75,-52.23 36.75,-52.23 0,0 87.45,24.72 116.59,-58.73 55.02,1.24 53.78,-114.57 -56.87,-155.79 -44.92,22.26 -46.98,101.25 -27.82,124.88" /><path
         id="path236"
         style="fill:#17282f;fill-opacity:1;fill-rule:nonzero;stroke:none"
         d="m 3623.54,2310.59 c -5.29,0 -9.98,3.78 -10.94,9.16 -1.1,6.03 2.91,11.8 8.93,12.92 1,0.3 3.97,2.74 6.44,8.11 2.61,5.66 4.29,14.09 1.21,20.83 -2.55,5.6 -0.08,12.19 5.51,14.75 5.57,2.58 12.19,0.08 14.74,-5.51 6.67,-14.64 3.14,-31.16 -2.41,-41.75 -5.31,-10.14 -13.15,-16.83 -21.5,-18.33 l -1.98,-0.18" /><path
         id="path238"
         style="fill:#f9a8b3;fill-opacity:1;fill-rule:nonzero;stroke:none"
         d="m 3598.57,2168.46 c -11.25,-14.77 -27.69,-23.55 -42.1,-26.09 -21.68,-3.81 -28.27,16.13 -18.68,35.49 8.62,17.43 30.3,40.42 50.34,35.45 19.75,-4.9 23.31,-27.97 10.44,-44.85" /><path
         id="path240"
         style="fill:#17282f;fill-opacity:1;fill-rule:nonzero;stroke:none"
         d="m 3454.78,2232.53 c -0.97,-6.29 -5.1,-10.99 -9.23,-10.5 -4.13,0.5 -6.69,5.99 -5.72,12.28 0.97,6.29 5.1,10.99 9.23,10.51 4.13,-0.5 6.69,-6 5.72,-12.29" /><path
         id="path242"
         style="fill:#17282f;fill-opacity:1;fill-rule:nonzero;stroke:none"
         d="m 3383.4,2241.03 c -0.97,-6.3 -5.1,-11 -9.23,-10.51 -4.13,0.5 -6.69,5.98 -5.72,12.28 0.97,6.29 5.1,10.99 9.23,10.5 4.13,-0.5 6.69,-5.98 5.72,-12.27" /><path
         id="path244"
         style="fill:#f46878;fill-opacity:1;fill-rule:nonzero;stroke:none"
         d="m 3405.15,2238.5 c 0,0 -14.98,-30.52 -29.81,-44.85 8.8,-9.4 25.41,-6.17 25.41,-6.17 l 4.4,51.02" /><path
         id="path246"
         style="fill:#17282f;fill-opacity:1;fill-rule:nonzero;stroke:none"
         d="m 3429.97,2155.17 c 25.05,0 39.06,15.62 39.7,16.34 l -0.17,2.64 -2.64,-0.17 c -0.16,-0.18 -16.09,-17.99 -43.85,-14.66 -1.03,0.13 -1.95,-0.61 -2.07,-1.63 -0.12,-1.03 0.61,-1.96 1.63,-2.07 2.57,-0.32 5.03,-0.45 7.4,-0.45" /><path
         id="path248"
         style="fill:#17282f;fill-opacity:1;fill-rule:nonzero;stroke:none"
         d="m 3483.48,2268.8 1.66,0.85 c 1.54,1.37 1.68,3.73 0.31,5.27 -13.57,15.26 -30.68,12.48 -31.39,12.36 -1.95,-0.15 -3.4,-2.28 -3.04,-4.32 0.35,-2.03 2.28,-3.39 4.31,-3.05 0.71,0.12 13.88,2.03 24.53,-9.95 0.94,-1.05 2.34,-1.45 3.62,-1.16" /><path
         id="path250"
         style="fill:#17282f;fill-opacity:1;fill-rule:nonzero;stroke:none"
         d="m 3357.91,2272.9 c 1.15,-0.33 2.43,-0.11 3.42,0.71 13.06,10.86 26.49,7.28 26.62,7.24 1.99,-0.57 4.05,0.6 4.6,2.59 0.56,1.97 -0.59,4.03 -2.56,4.59 l -0.02,0.01 c -0.71,0.19 -17.37,4.66 -33.41,-8.68 -1.59,-1.32 -1.8,-3.68 -0.49,-5.26 l 1.84,-1.2" /><path
         id="path252"
         style="fill:#f9a8b3;fill-opacity:1;fill-rule:nonzero;stroke:none"
         d="m 3488.08,1706.2 -43.76,27.21 c -13.13,8.16 -30.4,4.01 -38.4,-9.23 l -5.15,-8.53 c -6.23,-10.33 -5.09,-23.48 2.83,-32.57 l 30.2,-34.67 c 0,0 26.28,-61.28 56.75,-45.1 l 23.24,40.27 -25.71,62.62" /><path
         id="path254"
         style="fill:#406fbf;fill-opacity:1;fill-rule:nonzero;stroke:none"
         d="m 3533.16,1627.86 c 0,0 -11.01,27.07 -22.88,40.77 -21.97,-18.83 -39.78,-78.85 -39.78,-78.85 l 26.89,-5.8 c 0,0 32.45,8.11 35.77,43.88" /><path
         id="path256"
         style="fill:#406fbf;fill-opacity:1;fill-rule:nonzero;stroke:none"
         d="m 3868.31,1180.49 h -519.17 c -34.05,0 -56.08,-33.68 -49.23,-75.23 l 64.81,-392.78 c 6.85,-41.539 40,-75.218 74.04,-75.218 h 365.27 l 64.28,543.228" /><path
         id="path258"
         style="fill:#90b4e3;fill-opacity:1;fill-rule:nonzero;stroke:none"
         d="m 3804.03,637.262 h -246.74 l -24.12,543.228 h 335.14 l -64.28,-543.228 m -292.1,0 h -73.17 c -19.46,0 -38.63,11 -52.76,28.199 l -22.87,515.029 h 112.62 l 36.18,-543.228 m -193.9,358.179 -2.92,17.729 -15.2,92.09 c -0.84,5.12 -1.25,10.11 -1.25,14.93 0,13.4 3.13,25.5 8.71,35.29 l 10.66,-160.039" /><path
         id="path260"
         style="fill:#406fbf;fill-opacity:1;fill-rule:nonzero;stroke:none"
         d="m 1472.83,136.59 h 14.99 c 5.09,0 9.33,4.301 9.7,9.871 l 82.51,1238.869 h -61.97 L 1463.11,147.75 c -0.27,-6.078 4.16,-11.16 9.72,-11.16" /><path
         id="path262"
         style="fill:#6d97d6;fill-opacity:1;fill-rule:nonzero;stroke:none"
         d="m 1487.82,136.59 h -14.99 c -5.41,0 -9.75,4.808 -9.73,10.66 0,0.16 0,0.328 0.01,0.5 l 19.42,437.391 h 44.21 l -8.89,-133.512 -0.17,-2.5 -5.49,-82.399 -0.16,-2.5 -14.51,-217.769 c -0.37,-5.57 -4.61,-9.871 -9.7,-9.871" /><path
         id="path264"
         style="fill:#406fbf;fill-opacity:1;fill-rule:nonzero;stroke:none"
         d="m 1302.79,136.59 h 14.99 c 5.1,0 9.33,4.301 9.71,9.871 l 82.5,1238.869 h -61.97 L 1293.07,147.75 c -0.27,-6.078 4.16,-11.16 9.72,-11.16" /><path
         id="path266"
         style="fill:#6d97d6;fill-opacity:1;fill-rule:nonzero;stroke:none"
         d="m 1317.78,136.59 h -14.99 c -5.41,0 -9.74,4.808 -9.73,10.66 0,0.16 0,0.328 0.01,0.5 l 19.42,437.391 h 44.21 l -8.89,-133.512 -0.17,-2.5 -5.49,-82.399 -0.16,-2.5 -14.5,-217.769 c -0.38,-5.57 -4.61,-9.871 -9.71,-9.871" /><path
         id="path268"
         style="fill:#406fbf;fill-opacity:1;fill-rule:nonzero;stroke:none"
         d="m 3399.26,136.59 h -14.98 c -5.1,0 -9.33,4.301 -9.7,9.871 l -82.52,1238.869 h 61.98 l 54.94,-1237.58 c 0.27,-6.078 -4.16,-11.16 -9.72,-11.16" /><path
         id="path270"
         style="fill:#6d97d6;fill-opacity:1;fill-rule:nonzero;stroke:none"
         d="m 3399.26,136.59 h -14.98 c -5.1,0 -9.33,4.301 -9.7,9.871 l -32.69,490.789 -23.86,358.191 -20.81,312.449 -5.16,77.44 h 61.98 l 54.94,-1237.58 c 0.01,-0.172 0.02,-0.34 0.02,-0.5 0.01,-5.852 -4.33,-10.66 -9.74,-10.66" /><path
         id="path272"
         style="fill:#406fbf;fill-opacity:1;fill-rule:nonzero;stroke:none"
         d="m 3569.3,136.59 h -14.98 c -5.1,0 -9.33,4.301 -9.71,9.871 L 3462.1,1385.33 h 61.98 l 54.94,-1237.58 c 0.27,-6.078 -4.16,-11.16 -9.72,-11.16" /><path
         id="path274"
         style="fill:#6d97d6;fill-opacity:1;fill-rule:nonzero;stroke:none"
         d="m 3569.3,136.59 h -14.98 c -5.1,0 -9.33,4.301 -9.71,9.871 l -32.68,490.789 v 0.012 l -44.78,672.238 -5.05,75.83 h 61.98 l 54.94,-1237.58 c 0.01,-0.172 0.01,-0.34 0.01,-0.5 0.02,-5.852 -4.32,-10.66 -9.73,-10.66" /><path
         id="path276"
         style="fill:#406fbf;fill-opacity:1;fill-rule:nonzero;stroke:none"
         d="m 1227.79,1385.33 h 2413.02 v 25.4688 H 1227.79 Z" /><path
         id="path278"
         style="fill:#872f37;fill-opacity:1;fill-rule:nonzero;stroke:none"
         d="m 1187.59,1805.42 -22.79,-167.68 c -7.19,-55.84 -14.7,-111.82 -20.08,-166.79 -0.76,-6.92 -1.26,-13.67 -1.82,-20.46 l -0.83,-10.19 c 0.07,0.76 0.01,3.45 -0.35,5 -0.16,1.63 -0.67,3.38 -1.16,4.77 -0.34,1.21 -1.03,2.6 -1.5,3.5 l -1.39,2.25 c -1.77,2.28 -1.97,1.96 -1.49,1.48 0.39,-0.56 1.8,-1.66 3.4,-2.85 3.36,-2.43 8.09,-5.16 13.25,-7.74 21.21,-10.38 47.45,-19.23 73.42,-27.26 52.48,-15.91 107.52,-29.69 161.9,-43.09 l -6.14,-47.78 c -58.2,2.06 -115.33,7.48 -173.42,17.95 -29.15,5.55 -58,11.61 -89.12,23.53 -7.85,3.09 -15.92,6.61 -24.7,11.59 -4.42,2.56 -8.93,5.43 -13.95,9.46 -4.95,4.08 -10.33,8.76 -15.97,17.03 -2.78,4.17 -5.48,9.18 -7.55,15.29 -1.02,3.07 -1.8,6.6 -2.37,9.94 -0.47,3.32 -0.64,7.8 -0.59,10.32 l 0.25,11.11 c 0.17,7.39 0.29,14.84 0.65,22.09 2.37,58.42 7.62,115.43 13.85,172.45 6.1,57.01 13.37,113.49 22.31,170.27 l 96.19,-14.19" /><path
         id="path280"
         style="fill:#872f37;fill-opacity:1;fill-rule:nonzero;stroke:none"
         d="m 1514.07,1325.93 -36.67,-33.52 c -8.55,-7.81 -21.01,-9.65 -31.45,-4.62 l -40.54,19.52 c 0,0 -60.1,2.49 -68.67,39.2 l 15.54,28.53 93.11,10.34 c 9.56,1.07 19.21,-1.08 27.43,-6.09 l 38.37,-23.44 c 10.69,-6.52 12.13,-21.47 2.88,-29.92" /><path
         id="path282"
         style="fill:#872f37;fill-opacity:1;fill-rule:nonzero;stroke:none"
         d="m 1294.5,2149.97 c 9.5,-57.51 17.58,-162.63 -23.57,-199.59 0,0 100.43,-52.58 166.28,-144.35 70.43,55.8 11.45,139.06 11.45,139.06 -63.31,17.13 -60.26,64.38 -47.83,108.49 l -106.33,96.39" /><path
         id="path284"
         style="fill:#406fbf;fill-opacity:1;fill-rule:nonzero;stroke:none"
         d="m 1482.43,1909.72 c 0,0 -5.3,48.77 -31.92,72.88 -22.36,20.25 -139.7,9 -176.67,4.88 -6.96,-0.78 -12.97,-5.09 -15.99,-11.39 l -26.81,-56.01 251.39,-10.36" /><path
         id="path286"
         style="fill:#cfe0f5;fill-opacity:1;fill-rule:nonzero;stroke:none"
         d="m 1475.04,1941.53 c -8.83,1.3 -17.67,2.5 -26.38,3.56 -38.68,4.69 -75.68,6.01 -115.73,6.01 -19.74,0 -40.22,-0.32 -62,-0.72 -8.65,-0.16 -17.28,-0.46 -25.81,-0.88 l 12.73,26.59 c 3.02,6.3 9.03,10.61 15.99,11.39 20.69,2.31 66.55,6.85 106.86,6.85 31.7,0 59.97,-2.81 69.81,-11.73 12.05,-10.91 19.73,-26.87 24.53,-41.07" /><path
         id="path288"
         style="fill:#406fbf;fill-opacity:1;fill-rule:nonzero;stroke:none"
         d="m 1157.3,1935.4 c -72.41,-23.56 -87.96,-120.64 -81.45,-196.21 L 1222,1649.3 c 0,0 35.49,110.33 35.19,169.25 -0.32,62.7 -50.72,132.85 -99.89,116.85" /><path
         id="path290"
         style="fill:#ffffff;fill-opacity:1;fill-rule:nonzero;stroke:none"
         d="m 1185.6,1671.32 c -3.5,0 -7.01,1.4 -9.6,3.9 l -1.61,2.1 -1.29,2.4 -0.81,2.5 -0.29,2.6 c 0,3.6 1.5,7.09 4,9.59 5.09,5.11 14.2,5.11 19.2,0 2.5,-2.5 4,-5.99 4,-9.59 l -0.3,-2.6 -0.8,-2.5 -1.21,-2.4 -1.69,-2.1 c -2.5,-2.5 -6,-3.9 -9.6,-3.9" /><path
         id="path292"
         style="fill:#ffffff;fill-opacity:1;fill-rule:nonzero;stroke:none"
         d="m 1157.5,1680.52 h 0.1 c -5.2,2 -8.5,6.9 -8.7,12.2 -3.9,-3.5 -9.6,-4.6 -14.7,-2.2 -5,2.3 -8,7.4 -7.9,12.6 -4.1,-3.3 -9.9,-4 -14.81,-1.3 -4.89,2.59 -7.5,7.8 -7.1,13 -4.29,-3 -10.09,-3.4 -14.89,-0.5 -6.4,3.8 -8.41,12.19 -4.6,18.6 3.9,6.4 12.3,8.5 18.69,4.6 4.51,-2.8 6.81,-7.8 6.51,-12.7 4,2.9 9.5,3.39 14.2,0.89 4.6,-2.5 7.3,-7.29 7.19,-12.29 3.81,3.09 9.31,3.9 14.11,1.7 4.8,-2.2 7.7,-6.91 7.9,-11.8 3.7,3.19 9,4.4 14,2.5 6.89,-2.8 10.4,-10.7 7.6,-17.61 -2.1,-5.39 -7.2,-8.59 -12.6,-8.59 -1.7,0 -3.3,0.3 -5,0.9" /><path
         id="path294"
         style="fill:#ffffff;fill-opacity:1;fill-rule:nonzero;stroke:none"
         d="m 1075.9,1725.62 c -0.9,0 -1.8,0.09 -2.71,0.3 l -2.5,0.8 -2.39,1.2 -2,1.7 -1.7,2 -1.3,2.39 -0.8,2.5 c -0.1,0.91 -0.21,1.81 -0.21,2.71 l 0.21,2.6 0.8,2.59 1.3,2.31 1.7,2.1 2,1.7 2.39,1.2 2.5,0.8 c 4.41,0.8 9.1,-0.61 12.21,-3.7 l 1.7,-2.1 1.3,-2.31 0.7,-2.59 0.29,-2.6 c 0,-0.9 -0.09,-1.8 -0.29,-2.71 l -0.7,-2.5 -1.3,-2.39 -1.7,-2 c -2.5,-2.5 -6.01,-4 -9.5,-4" /><path
         id="path296"
         style="fill:#406fbf;fill-opacity:1;fill-rule:nonzero;stroke:none"
         d="m 1617.68,1794.31 c -6.12,-83.17 -24.62,-223.24 -70.21,-459.03 l -391.39,11.64 c 10.26,144.48 -5.24,252.21 -40.65,505.07 -6.46,46.16 26.73,88.35 73.09,93.13 25.13,2.6 53.67,4.73 82.41,5.26 65.96,1.21 119.99,1.71 177.73,-5.29 19.07,-2.32 38.77,-5.32 57.58,-8.54 68.27,-11.65 116.52,-73.17 111.44,-142.24" /><path
         id="path298"
         style="fill:#17282f;fill-opacity:1;fill-rule:nonzero;stroke:none"
         d="m 1497,2255.86 c 0.93,-7.72 5.77,-13.5 10.82,-12.89 5.05,0.6 8.39,7.35 7.46,15.08 -0.92,7.72 -5.76,13.48 -10.81,12.88 -5.05,-0.61 -8.39,-7.36 -7.47,-15.07" /><path
         id="path300"
         style="fill:#17282f;fill-opacity:1;fill-rule:nonzero;stroke:none"
         d="m 1502.29,2270.24 17.91,7.56 c 0,0 -7.78,-15.62 -17.91,-7.56" /><path
         id="path302"
         style="fill:#6b1317;fill-opacity:1;fill-rule:nonzero;stroke:none"
         d="m 1499.67,2243.88 c 0,0 17.08,-31.67 33.43,-45.98 -9.05,-10.73 -26.91,-8.47 -26.91,-8.47 l -6.52,54.45" /><path
         id="path304"
         style="fill:#17282f;fill-opacity:1;fill-rule:nonzero;stroke:none"
         d="m 1497.94,2323.56 c 0.87,1.29 1.05,3 0.34,4.51 -1.08,2.28 -3.8,3.25 -6.08,2.17 -22.82,-10.84 -25.9,-31.7 -26.01,-32.58 -0.34,-2.5 1.41,-4.8 3.91,-5.14 2.48,-0.34 4.79,1.4 5.13,3.9 0.11,0.68 2.66,16.91 20.88,25.56 l 1.83,1.58" /><path
         id="path306"
         style="fill:#872f37;fill-opacity:1;fill-rule:nonzero;stroke:none"
         d="m 1230.65,2257.61 c 17.19,-94.13 22.45,-134.34 76.18,-177.27 80.82,-64.58 192.67,-22.88 203.96,74.49 10.15,87.64 -19.66,226.85 -117.01,253.46 -95.9,26.22 -180.32,-56.55 -163.13,-150.68" /><path
         id="path308"
         style="fill:#17282f;fill-opacity:1;fill-rule:nonzero;stroke:none"
         d="m 1437.95,2231.26 c 15.87,-51.72 53.68,-176.78 -29.84,-204.62 -65.35,-21.78 -269.92,-39.2 -293.48,80.68 -24.36,123.94 86.16,212.15 86.16,212.15 0,0 -87.56,71.82 -31.46,150.04 72.31,100.84 245.42,43.82 296.81,-27.42 49.96,-69.26 -28.19,-210.83 -28.19,-210.83" /><path
         id="path310"
         style="fill:#17282f;fill-opacity:1;fill-rule:nonzero;stroke:none"
         d="m 1279.61,2009.44 c -33.5,0 -75.05,6.84 -109.27,21.57 -46.46,20.01 -73.58,50.92 -78.42,89.41 -16.41,130.71 105.22,202.54 106.45,203.24 l 4.84,-8.38 c -1.17,-0.68 -117.29,-69.4 -101.68,-193.65 5.54,-44.08 42.56,-68.78 72.64,-81.73 59.38,-25.56 136.09,-25.43 154.71,-11.77 l 5.72,-7.82 c -9.69,-7.1 -30.12,-10.87 -54.99,-10.87" /><path
         id="path312"
         style="fill:#406fbf;fill-opacity:1;fill-rule:nonzero;stroke:none"
         d="m 1163.13,2338.23 c -1.09,-16.72 -14.97,-39.68 43,-48.32 57.97,-8.64 138.51,-7.82 155.04,6.13 16.53,13.94 32.81,47.28 -1.75,44.3 -34.57,-2.99 -194.41,26.48 -196.29,-2.11" /><path
         id="path314"
         style="fill:#872f37;fill-opacity:1;fill-rule:nonzero;stroke:none"
         d="m 1406.32,2216.5 c 9.91,-18.83 27.6,-31.33 44.38,-36.25 25.25,-7.39 38.2,15.11 31.45,39.11 -6.07,21.6 -26.52,51.47 -51.99,48.35 -25.1,-3.1 -35.17,-29.67 -23.84,-51.21" /><path
         id="path316"
         style="fill:#872f37;fill-opacity:1;fill-rule:nonzero;stroke:none"
         d="m 2016.41,240.031 92.8,1.758 -44.93,231.652 -92.8,-1.769 44.93,-231.641" /><path
         id="path318"
         style="fill:#872f37;fill-opacity:1;fill-rule:nonzero;stroke:none"
         d="m 2086,340.891 c 24.55,-92.45 114.76,-190.321 114.76,-190.321 l -128.77,32.711 -56.28,79.969 9.85,21.172 60.44,56.469" /><path
         id="path320"
         style="fill:#17282f;fill-opacity:1;fill-rule:nonzero;stroke:none"
         d="m 1994.55,297.922 c -0.39,-10.274 0.39,-21.973 1.87,-32.352 5.43,-38.25 22.31,-139.609 22.31,-139.609 l 8.74,-0.063 c 0,0 -8.28,68.243 -7.08,93.391 1.2,25.152 17.43,-19.32 37.03,-44.48 19.6,-25.149 54.88,-48.047 111.98,-49.84 66.85,-2.09 93.49,0.711 72.06,17.402 -21.42,16.699 -66.96,27.59 -66.96,27.59 0,0 -52.59,18.891 -90.19,75.41 -24.37,36.649 -65.22,63.16 -82.95,71.777 -5.37,-0.949 -6.5,-11.066 -6.81,-19.226" /><path
         id="path322"
         style="fill:#872f37;fill-opacity:1;fill-rule:nonzero;stroke:none"
         d="m 2345.07,554.711 118.46,-3.66 -132.49,196.98 -82.03,-70.109 96.06,-123.211" /><path
         id="path324"
         style="fill:#872f37;fill-opacity:1;fill-rule:nonzero;stroke:none"
         d="m 2373.2,638.352 c 86.06,-40.09 223.91,-32.204 223.91,-32.204 l -112.05,-89.898 -96.08,7.121 -10.15,21.348 -5.63,93.633" /><path
         id="path326"
         style="fill:#17282f;fill-opacity:1;fill-rule:nonzero;stroke:none"
         d="m 2354.98,536.199 c 7.3,-7.328 16.38,-14.719 24.91,-20.66 31.43,-21.891 116.28,-77.98 116.28,-77.98 l 5.44,6.839 c 0,0 -55.21,40.184 -72.94,58.332 -17.73,18.149 24.94,0.489 55.52,-1.3 30.58,-1.789 69.18,10.289 105.75,53.98 42.81,51.141 57.2,74.012 31.72,68.582 -25.48,-5.422 -61.61,-33.793 -61.61,-33.793 0,0 -46.34,-28.437 -111.06,-19.347 -41.96,5.898 -86.65,-8.09 -103.92,-16.141 -2.62,-4.879 4.11,-12.68 9.91,-18.512" /><path
         id="path328"
         style="fill:#17282f;fill-opacity:1;fill-rule:nonzero;stroke:none"
         d="m 1410.98,1342.11 c 0,0 633.64,93.73 699.24,-68.69 C 2224.36,990.809 2385.54,667 2385.54,667 l -77.83,-64.379 c 0,0 -276.27,255.75 -374.55,539.679 -117.4,-37.99 -490.89,-160.21 -627.69,-160.21 -146.11,0 -205.78,124.57 -153.01,331.43 4.7,18.43 21.51,31.21 40.54,31.12 91.99,-0.46 217.98,-2.53 217.98,-2.53" /><path
         id="path330"
         style="fill:#17282f;fill-opacity:1;fill-rule:nonzero;stroke:none"
         d="m 1471.72,1259.59 c 0,0 520.06,15.66 524.45,-168.58 7.25,-304.69 93.12,-741.291 93.12,-741.291 l -94.86,-8.828 c 0,0 -155.09,347.289 -196.12,644.929 -185.25,-12.019 -356.04,-3.73 -492.84,-3.73 -153.31,0 -165.98,168.37 -16.75,364.82 91.21,0 183,-87.32 183,-87.32" /><path
         id="path332"
         style="fill:#ffffff;fill-opacity:1;fill-rule:nonzero;stroke:none"
         d="m 1150.9,1370.07 -11.05,-34.74 c -1.45,-2.67 1.69,-5.54 6.21,-5.68 l 402.83,-11.97 c 3.53,-0.11 6.5,1.53 6.79,3.74 l 4.57,34.93 c 0.32,2.42 -2.68,4.57 -6.54,4.68 l -396.35,11.78 c -2.91,0.09 -5.52,-1.02 -6.46,-2.74" /><path
         id="path334"
         style="fill:#17282f;fill-opacity:1;fill-rule:nonzero;stroke:none"
         d="m 1202.81,1324.17 -10.61,0.31 c -2.12,0.06 -3.69,1.2 -3.51,2.53 l 6.33,45.37 c 0.19,1.33 2.07,2.37 4.18,2.3 l 10.62,-0.31 c 2.11,-0.07 3.69,-1.2 3.51,-2.53 l -6.34,-45.37 c -0.18,-1.33 -2.06,-2.37 -4.18,-2.3" /><path
         id="path336"
         style="fill:#17282f;fill-opacity:1;fill-rule:nonzero;stroke:none"
         d="m 1518.94,1314.77 -10.61,0.31 c -2.12,0.07 -3.7,1.2 -3.51,2.53 l 6.33,45.37 c 0.19,1.33 2.07,2.36 4.18,2.29 l 10.62,-0.31 c 2.11,-0.06 3.69,-1.2 3.5,-2.53 l -6.33,-45.37 c -0.18,-1.33 -2.07,-2.36 -4.18,-2.29" /><path
         id="path338"
         style="fill:#17282f;fill-opacity:1;fill-rule:nonzero;stroke:none"
         d="m 1360.88,1319.46 -10.62,0.33 c -2.11,0.06 -3.69,1.2 -3.5,2.52 l 6.33,45.37 c 0.18,1.32 2.07,2.36 4.18,2.3 l 10.62,-0.32 c 2.11,-0.06 3.69,-1.19 3.5,-2.52 l -6.33,-45.37 c -0.19,-1.33 -2.07,-2.37 -4.18,-2.31" /><path
         id="path340"
         style="fill:#406fbf;fill-opacity:1;fill-rule:nonzero;stroke:none"
         d="m 1843.25,1759.53 h 253 c 8.07,0 13.89,-7.76 11.63,-15.52 l -94.54,-324.47 c -1.5,-5.17 -6.25,-8.74 -11.63,-8.74 h -252.99 c -8.08,0 -13.9,7.77 -11.64,15.52 l 94.54,324.48 c 1.51,5.17 6.25,8.73 11.63,8.73" /><path
         id="path342"
         style="fill:#dadbd8;fill-opacity:1;fill-rule:nonzero;stroke:none"
         d="m 1847.92,1747.62 245.88,-5.84 -97.09,-306.04 -245.88,5.83 97.09,306.05" /><path
         id="path344"
         style="fill:#ffffff;fill-opacity:1;fill-rule:nonzero;stroke:none"
         d="m 1840.19,1750.63 245.95,-1.02 -91.09,-307.88 -245.95,1.01 91.09,307.89" /><path
         id="path346"
         style="fill:#872f37;fill-opacity:1;fill-rule:nonzero;stroke:none"
         d="m 1618.43,1744.26 c 0.5,-9.76 1.42,-21.89 2.31,-32.96 0.99,-11.33 2.24,-22.68 3.73,-33.95 2.8,-22.59 6.56,-44.95 11.19,-66.79 4.81,-21.77 10.47,-43.12 17.86,-63.06 3.68,-9.99 7.73,-19.65 12.19,-28.76 2.16,-4.65 4.62,-8.95 7.03,-13.28 l 3.66,-6.14 -0.4,0.07 c 0.69,-1.57 7.75,-6.09 15.93,-9.32 8.38,-3.4 18.39,-6.25 28.81,-8.61 20.97,-4.83 43.79,-7.97 66.87,-10.34 46.19,-4.49 94.44,-6.73 141.72,-7.71 l 4.77,-47.92 c -49.37,-9.52 -98.28,-15.53 -149.08,-16.85 -25.39,-0.56 -51.07,-0.11 -77.96,3.2 -13.47,1.78 -27.22,4.19 -41.87,8.46 -14.63,4.62 -30.42,9.91 -47.83,24.69 -4.26,3.61 -8.61,8.32 -12.56,13.57 l -6.43,8.99 c -4.03,5.95 -8.02,11.94 -11.51,18.03 -7.27,12.12 -13.44,24.52 -18.86,37.01 -11.02,24.97 -19.29,50.25 -25.82,75.64 -6.62,25.35 -11.39,50.83 -14.88,76.35 -1.67,12.77 -3.04,25.57 -4.13,38.4 -1.13,13.1 -1.81,25.19 -1.95,39.69 l 97.21,1.59" /><path
         id="path348"
         style="fill:#406fbf;fill-opacity:1;fill-rule:nonzero;stroke:none"
         d="m 1585.53,1891.73 c 62.97,-59.29 47.8,-213.81 47.8,-213.81 l -120.66,-21.08 c 0,0 -74.5,110.78 -48.31,157.22 27.27,48.37 87.1,109.74 121.17,77.67" /><path
         id="path350"
         style="fill:#ffffff;fill-opacity:1;fill-rule:nonzero;stroke:none"
         d="m 1633.3,1664.32 c -3.51,0 -7.1,1.5 -9.6,4 l -1.7,2.1 -1.2,2.3 c -0.3,0.8 -0.6,1.69 -0.8,2.6 l -0.21,2.6 c 0,3.59 1.41,7.1 3.91,9.6 l 2.1,1.7 2.3,1.2 2.59,0.8 c 4.31,0.9 9.01,-0.6 12.21,-3.7 2.5,-2.5 3.99,-6.01 3.99,-9.6 l -0.29,-2.6 c -0.2,-0.91 -0.4,-1.8 -0.8,-2.6 l -1.2,-2.3 -1.7,-2.1 c -2.5,-2.5 -6.01,-4 -9.6,-4" /><path
         id="path352"
         style="fill:#ffffff;fill-opacity:1;fill-rule:nonzero;stroke:none"
         d="m 1523.7,1657.12 c -0.6,7.5 4.89,14.1 12.39,14.7 5.21,0.5 10.11,-2.1 12.71,-6.4 1.6,4.7 5.7,8.4 10.9,9.2 5.2,0.7 10.2,-1.6 13.1,-5.7 1.3,4.8 5.2,8.7 10.3,9.69 5.2,1.11 10.3,-0.99 13.39,-4.89 1.01,4.89 4.71,9 9.81,10.4 v -0.11 c 7.29,2.01 14.7,-2.39 16.6,-9.6 1.89,-7.19 -2.4,-14.69 -9.71,-16.59 -5.29,-1.4 -10.79,0.6 -14.09,4.7 -1.1,-5.1 -5.11,-9.31 -10.6,-10.5 -5.4,-1 -10.8,1.3 -13.8,5.6 -1.4,-5.1 -5.6,-9.1 -11.11,-9.9 -5.49,-0.81 -10.79,1.9 -13.49,6.29 -1.7,-4.89 -6.11,-8.69 -11.7,-9.19 h -1.11 c -6.99,0 -12.9,5.3 -13.59,12.3" /><path
         id="path354"
         style="fill:#ffffff;fill-opacity:1;fill-rule:nonzero;stroke:none"
         d="m 1512.7,1643.21 -2.7,0.31 -2.5,0.8 -2.4,1.2 -2,1.7 -1.7,2.1 -1.3,2.3 -0.71,2.6 -0.29,2.6 c 0,0.9 0.1,1.79 0.29,2.7 l 0.71,2.5 1.3,2.39 1.7,2.01 2,1.7 2.4,1.2 2.5,0.8 c 4.39,0.9 9.1,-0.5 12.2,-3.7 l 1.7,-2.01 1.3,-2.39 0.8,-2.5 c 0.09,-0.91 0.2,-1.8 0.2,-2.7 l -0.2,-2.6 -0.8,-2.6 -1.3,-2.3 -1.7,-2.1 c -2.5,-2.5 -6,-4.01 -9.5,-4.01" /><path
         id="path356"
         style="fill:#872f37;fill-opacity:1;fill-rule:nonzero;stroke:none"
         d="m 2042,1513.43 -41.75,2.82 c -10.42,0.7 -20.77,-2.08 -29.44,-7.9 l -76.72,-51.53 -0.58,-32.48 c 24.58,-28.59 79.01,-2.99 79.01,-2.99 l 50.5,1.62 c 8.24,0.26 15.5,5.52 18.33,13.27 l 18.27,50.12 c 4.61,12.64 -4.2,26.17 -17.62,27.07" /><path
         id="path358"
         style="fill:#406fbf;fill-opacity:1;fill-rule:nonzero;stroke:none"
         d="m 1175.88,91.5508 h 11.33 c 4.42,0 8.21,3.8789 8.97,9.1872 l 69.6,484.403 h -52.85 l -46.09,-481.18 c -0.63,-6.6094 3.59,-12.4102 9.04,-12.4102" /><path
         id="path360"
         style="fill:#2d5bb2;fill-opacity:1;fill-rule:nonzero;stroke:none"
         d="m 1187.21,91.5508 h -11.33 c -5.08,0 -9.11,5.0586 -9.11,11.0972 0,0.434 0.02,0.872 0.07,1.313 l 46.09,481.18 h 52.85 l -19.19,-133.512 -0.36,-2.5 -11.84,-82.399 -0.35,-2.5 -37.86,-263.492 c -0.76,-5.3083 -4.55,-9.1872 -8.97,-9.1872" /><path
         id="path362"
         style="fill:#406fbf;fill-opacity:1;fill-rule:nonzero;stroke:none"
         d="m 1030.87,91.5508 h 11.33 c 4.42,0 8.2,3.8789 8.97,9.1872 l 69.6,484.403 h -52.85 l -46.09,-481.18 c -0.63,-6.6094 3.59,-12.4102 9.04,-12.4102" /><path
         id="path364"
         style="fill:#2d5bb2;fill-opacity:1;fill-rule:nonzero;stroke:none"
         d="m 1042.2,91.5508 h -11.33 c -5.08,0 -9.11,5.0586 -9.1,11.0972 0,0.434 0.02,0.872 0.06,1.313 l 46.09,481.18 h 52.85 l -19.18,-133.512 -0.36,-2.5 -11.84,-82.399 -0.36,-2.5 -37.86,-263.492 c -0.77,-5.3083 -4.55,-9.1872 -8.97,-9.1872" /><path
         id="path366"
         style="fill:#406fbf;fill-opacity:1;fill-rule:nonzero;stroke:none"
         d="m 1838.85,91.5508 h -11.33 c -4.41,0 -8.2,3.8789 -8.96,9.1872 l -69.61,484.403 h 52.85 l 46.1,-481.18 c 0.63,-6.6094 -3.6,-12.4102 -9.05,-12.4102" /><path
         id="path368"
         style="fill:#2d5bb2;fill-opacity:1;fill-rule:nonzero;stroke:none"
         d="m 1838.85,91.5508 h -11.33 c -4.41,0 -8.2,3.8789 -8.96,9.1872 l -69.61,484.403 h 52.85 l 46.1,-481.18 c 0.04,-0.441 0.06,-0.879 0.06,-1.313 0,-6.0386 -4.02,-11.0972 -9.11,-11.0972" /><path
         id="path370"
         style="fill:#406fbf;fill-opacity:1;fill-rule:nonzero;stroke:none"
         d="m 1983.86,91.5508 h -11.33 c -4.42,0 -8.2,3.8789 -8.97,9.1872 l -69.6,484.403 h 52.85 l 46.1,-481.18 c 0.63,-6.6094 -3.6,-12.4102 -9.05,-12.4102" /><path
         id="path372"
         style="fill:#2d5bb2;fill-opacity:1;fill-rule:nonzero;stroke:none"
         d="m 1983.86,91.5508 h -11.33 c -4.42,0 -8.2,3.8789 -8.97,9.1872 l -69.6,484.403 h 52.85 l 46.1,-481.18 c 0.04,-0.441 0.06,-0.879 0.06,-1.313 0,-6.0386 -4.02,-11.0972 -9.11,-11.0972" /><path
         id="path374"
         style="fill:#406fbf;fill-opacity:1;fill-rule:nonzero;stroke:none"
         d="m 2171.79,1159.34 h -356 c -63.16,219.33 -290.43,392.38 -523.17,392.38 h -0.02 -115.61 c -243.615,0 -400.834,-189.56 -351.162,-423.39 9.121,-42.93 24.637,-84.35 45.305,-123.38 l 56.14,-340.29 c 7.247,-43.922 42.286,-79.519 78.267,-79.519 h 1071.52 c 35.97,0 71.01,35.597 78.26,79.519 l 68.49,415.15 c 7.24,43.92 -16.04,79.53 -52.02,79.53" /><path
         id="path376"
         style="fill:#90b4e3;fill-opacity:1;fill-rule:nonzero;stroke:none"
         d="M 2077.06,585.141 H 1005.54 c -35.981,0 -71.02,35.597 -78.267,79.519 l -56.14,340.29 c -20.668,39.03 -36.184,80.45 -45.305,123.38 -6.207,29.23 -9.183,57.77 -9.164,85.33 0.149,192.93 147.16,338.06 360.326,338.06 h 115.61 0.02 c 232.74,0 460.01,-173.05 523.17,-392.38 h 356 c 31.55,0 53.34,-27.39 53.34,-63.74 0,-5.1 -0.43,-10.38 -1.32,-15.79 l -8.5,-51.52 -45.73,-277.169 -14.26,-86.461 c -7.25,-43.922 -42.29,-79.519 -78.26,-79.519" /><path
         id="path378"
         style="fill:#406fbf;fill-opacity:1;fill-rule:nonzero;stroke:none"
         d="m 2125.32,2744.15 h -81.67 v 10 h 81.67 v -10" /><path
         id="path380"
         style="fill:#406fbf;fill-opacity:1;fill-rule:nonzero;stroke:none"
         d="m 1743.22,2636.31 h -10 v 49.2 c 0,37.85 30.8,68.64 68.66,68.64 h 182.3 v -10 h -182.3 c -32.35,0 -58.66,-26.31 -58.66,-58.64 v -49.2" /><path
         id="path382"
         style="fill:#406fbf;fill-opacity:1;fill-rule:nonzero;stroke:none"
         d="m 2713.6,2294.32 h -911.72 c -18.59,0 -33.66,15.07 -33.66,33.65 v 357.54 c 0,18.58 15.07,33.64 33.66,33.64 h 911.72 c 18.59,0 33.66,-15.06 33.66,-33.64 v -357.54 c 0,-18.58 -15.07,-33.65 -33.66,-33.65" /><path
         id="path384"
         style="fill:#ffffff;fill-opacity:1;fill-rule:nonzero;stroke:none"
         d="m 2670.49,2484.13 h -825.5 c -12.49,0 -22.61,10.12 -22.61,22.61 0,12.48 10.12,22.61 22.61,22.61 h 825.5 c 12.49,0 22.61,-10.13 22.61,-22.61 0,-12.49 -10.12,-22.61 -22.61,-22.61" /><path
         id="path386"
         style="fill:#ffffff;fill-opacity:1;fill-rule:nonzero;stroke:none"
         d="m 2493.83,2390.24 h -648.84 c -12.49,0 -22.61,10.11 -22.61,22.6 0,12.48 10.12,22.61 22.61,22.61 h 648.84 c 12.48,0 22.61,-10.13 22.61,-22.61 0,-12.49 -10.13,-22.6 -22.61,-22.6" /><path
         id="path388"
         style="fill:#ffffff;fill-opacity:1;fill-rule:nonzero;stroke:none"
         d="m 2123.37,2578.03 h -278.38 c -12.49,0 -22.61,10.12 -22.61,22.61 0,12.48 10.12,22.6 22.61,22.6 h 278.38 c 12.49,0 22.61,-10.12 22.61,-22.6 0,-12.49 -10.12,-22.61 -22.61,-22.61" /><path
         id="path390"
         style="fill:#ffffff;fill-opacity:1;fill-rule:nonzero;stroke:none"
         d="m 2492.39,2578.03 h -278.38 c -12.49,0 -22.61,10.12 -22.61,22.61 0,12.48 10.12,22.6 22.61,22.6 h 278.38 c 12.49,0 22.61,-10.12 22.61,-22.6 0,-12.49 -10.12,-22.61 -22.61,-22.61" /><path
         id="path392"
         style="fill:#406fbf;fill-opacity:1;fill-rule:nonzero;stroke:none"
         d="m 1822.38,2321.45 v -108.32 c 0,-20.85 23.95,-32.6 40.44,-19.85 l 166,128.49 -206.44,-0.32" /><path
         id="path394"
         style="fill:#ffffff;fill-opacity:1;fill-rule:nonzero;stroke:none"
         d="M 3228.13,3255.59 H 2316.4 c -18.59,0 -33.65,-15.07 -33.65,-33.66 v -357.54 c 0,-18.58 15.06,-33.65 33.65,-33.65 h 720.25 l 130.54,-101.02 c 16.48,-12.77 40.43,-1.02 40.43,19.83 v 81.19 h 20.51 c 18.58,0 33.65,15.07 33.65,33.65 v 357.54 c 0,18.59 -15.07,33.66 -33.65,33.66" /><path
         id="path396"
         style="fill:#406fbf;fill-opacity:1;fill-rule:nonzero;stroke:none"
         d="m 2316.4,3250.59 c -15.8,0 -28.66,-12.86 -28.66,-28.66 v -357.54 c 0,-15.8 12.86,-28.65 28.66,-28.65 h 721.95 l 131.89,-102.07 c 6.2,-4.8 14.1,-5.62 21.15,-2.15 7.04,3.45 11.24,10.19 11.24,18.03 v 86.19 h 25.5 c 15.8,0 28.65,12.85 28.65,28.65 v 357.54 c 0,15.8 -12.85,28.66 -28.65,28.66 z m 866.1,-531.16 c -6.51,0 -12.97,2.14 -18.37,6.33 l -129.2,99.98 H 2316.4 c -21.31,0 -38.66,17.35 -38.66,38.65 v 357.54 c 0,21.31 17.35,38.66 38.66,38.66 h 911.73 c 21.3,0 38.65,-17.35 38.65,-38.66 v -357.54 c 0,-21.3 -17.35,-38.65 -38.65,-38.65 h -15.5 v -76.19 c 0,-11.57 -6.46,-21.91 -16.84,-27.01 -4.25,-2.08 -8.78,-3.11 -13.29,-3.11" /><path
         id="path398"
         style="fill:#406fbf;fill-opacity:1;fill-rule:nonzero;stroke:none"
         d="m 2752.78,3020.56 h 432.23 c 12.49,0 22.61,10.12 22.61,22.6 0,12.5 -10.12,22.61 -22.61,22.61 h -432.23 c -12.49,0 -22.61,-10.11 -22.61,-22.61 0,-12.48 10.12,-22.6 22.61,-22.6" /><path
         id="path400"
         style="fill:#406fbf;fill-opacity:1;fill-rule:nonzero;stroke:none"
         d="m 2451.01,3020.56 h 214 c 12.49,0 22.61,10.12 22.61,22.6 0,12.5 -10.12,22.61 -22.61,22.61 h -214 c -12.48,0 -22.61,-10.11 -22.61,-22.61 0,-12.48 10.13,-22.6 22.61,-22.6" /><path
         id="path402"
         style="fill:#406fbf;fill-opacity:1;fill-rule:nonzero;stroke:none"
         d="m 2536.18,2926.66 h 648.83 c 12.49,0 22.61,10.12 22.61,22.61 0,12.49 -10.12,22.61 -22.61,22.61 h -648.83 c -12.49,0 -22.61,-10.12 -22.61,-22.61 0,-12.49 10.12,-22.61 22.61,-22.61" /><path
         id="path404"
         style="fill:#406fbf;fill-opacity:1;fill-rule:nonzero;stroke:none"
         d="m 2359.51,3114.45 h 825.5 c 12.49,0 22.61,10.12 22.61,22.61 0,12.49 -10.12,22.61 -22.61,22.61 h -825.5 c -12.48,0 -22.61,-10.12 -22.61,-22.61 0,-12.49 10.13,-22.61 22.61,-22.61" /></g></g></svg>